<?xml version="1.0" encoding="UTF-8"?>
<svg id="Vrstva_1" data-name="Vrstva 1" xmlns="http://www.w3.org/2000/svg" xmlns:xlink="http://www.w3.org/1999/xlink" viewBox="0 0 2648.04 3523.34">
  <defs>
    <style>
      .cls-1 {
        fill: none;
      }

      .cls-2 {
        fill: #2b2b2b;
      }

      .cls-3 {
        fill: #606060;
      }

      .cls-4 {
        isolation: isolate;
      }

      .cls-5 {
        fill: #dedede;
      }

      .cls-6 {
        clip-path: url(#clippath-1);
      }

      .cls-7 {
        clip-path: url(#clippath-3);
      }

      .cls-8 {
        clip-path: url(#clippath-2);
      }

      .cls-9 {
        opacity: .5;
      }

      .cls-10 {
        opacity: .5;
      }

      .cls-11 {
        fill: #aeaeae;
      }

      .cls-12 {
        clip-path: url(#clippath);
      }
    </style>
    <clipPath id="clippath">
      <rect class="cls-1" width="2480" height="261"/>
    </clipPath>
    <clipPath id="clippath-1">
      <rect class="cls-1" x="2168.82" y="-119.86" width="208.55" height="634.21" transform="translate(1684.12 2401.55) rotate(-80)"/>
    </clipPath>
    <clipPath id="clippath-2">
      <rect class="cls-1" x="3" y="3181" width="2477" height="327"/>
    </clipPath>
    <clipPath id="clippath-3">
      <rect class="cls-1" x="1747.73" y="3158.89" width="881.81" height="289.97" transform="translate(-541.36 431.1) rotate(-10.02)"/>
    </clipPath>
  </defs>
  <g id="Group_45" data-name="Group 45">
    <g class="cls-12">
      <g id="Group_44" data-name="Group 44">
        <path id="Path_110" data-name="Path 110" class="cls-5" d="M1.46,0v259.67s1236.49-99.78,1735.65-98.08c456.37,1.55,742.68,78.94,742.68,78.94V0H1.46Z"/>
      </g>
    </g>
  </g>
  <g id="Group_70" data-name="Group 70" class="cls-10">
    <g class="cls-6">
      <g id="Group_59" data-name="Group 59">
        <path id="Path_123" data-name="Path 123" class="cls-3" d="M2169.54,130.88c-4.77,7.1-8.34,14.92-10.59,23.17-3.51,13.31-5.9,37.4-4.22,47.74,0,0-9.21-54.96-9.4-54.97s11.66-11.04,24.21-15.94"/>
        <path id="Path_124" data-name="Path 124" class="cls-3" d="M2350.76,232.86c12.05,10.45,24.71,21.06,30.62,24.95,13.36,8.78,42.87,26.36,76.2,32.8,33.25,6.42,80.61-1.41,128.24-40.78-3.84,3.01-46.05,35.48-76.2,38.18,0,0-28.26,5.74-51.59-.55,0,0-47.5-15.14-73.59-32.92-10.96-7.55-21.43-15.8-31.32-24.71-.06.1-.14.21-.22.31-.69.93-1.41,1.84-2.14,2.72"/>
        <path id="Path_125" data-name="Path 125" class="cls-3" d="M1966.03,115.92c.82,1.79,2.81,3.65,21.49-8.98,0,0,59.62,33.98,81.04,79.13,12.9,27.32,22.45,56.11,28.44,85.72,0,0,1.13,1.23,1.52-.59s-1.93-49.38,15.8-84.91c0,0,26.15-48.06,66.76-59.5,5.02-1.38,10.36-.88,15.04,1.39,20.33,9.72,83.4,42.47,157.24,107.13.53-1.27,1.95-2.48,2.92-3.73-14.2-11.68-114.85-102.81-174.07-141.67-48.82-32.03-102.52-31.74-130.77-27.63s-61.39,21.25-73.86,35.27c-12.47,14.02-12.37,16.59-11.55,18.38"/>
      </g>
    </g>
  </g>
  <g id="Group_67" data-name="Group 67">
    <g class="cls-8">
      <g id="Group_44-2" data-name="Group 44-2">
        <path id="Path_110-2" data-name="Path 110-2" class="cls-5" d="M3,3507.69v-325.57s1235.84,125.11,1734.73,122.98c456.12-1.94,742.28-98.98,742.28-98.98v301.57H3Z"/>
      </g>
    </g>
  </g>
  <g id="Group_68" data-name="Group 68" class="cls-9">
    <g class="cls-7">
      <g id="Group_59-2" data-name="Group 59-2">
        <path id="Path_123-2" data-name="Path 123-2" class="cls-11" d="M2044.69,3396.19c-6.64-9.86-11.61-20.75-14.73-32.22-4.88-18.51-8.22-52-5.9-66.37,0,0-12.78,76.42-13.04,76.43s16.21,15.36,33.66,22.16"/>
        <path id="Path_124-2" data-name="Path 124-2" class="cls-11" d="M2296.61,3254.33c16.75-14.54,34.34-29.29,42.56-34.71,18.58-12.21,59.6-36.66,105.93-45.64,46.24-8.95,112.08,1.92,178.32,56.64-5.34-4.18-64.05-49.31-105.97-53.05,0,0-39.29-7.97-71.74.79,0,0-66.04,21.06-102.31,45.8,0,0-23.47,15.88-43.53,34.38-.08-.14-.2-.29-.3-.43-.96-1.3-1.96-2.57-2.97-3.78"/>
        <path id="Path_125-2" data-name="Path 125-2" class="cls-11" d="M1761.73,3417.08c1.14-2.49,3.91-5.08,29.89,12.48,0,0,82.88-47.27,112.64-110.06,29.76-62.8,38.25-115.04,39.5-119.2,0,0,1.57-1.71,2.12.82.55,2.51-2.66,68.66,22.01,118.06,0,0,36.38,66.82,92.86,82.7,6.98,1.91,14.41,1.22,20.92-1.94,28.27-13.52,115.94-59.08,218.58-149.02.74,1.77,2.7,3.45,4.06,5.18-19.73,16.25-159.65,143-241.97,197.06-67.87,44.57-142.52,44.19-181.81,38.48-39.29-5.71-85.36-29.52-102.72-49.01-17.36-19.5-17.21-23.06-16.07-25.56"/>
      </g>
    </g>
  </g>
  <g id="SCHNEIDER_construction_s.r.o._Průmyslová_č.957_5_747_23_Bolatice" data-name="SCHNEIDER construction s.r.o. Průmyslová č.957 5 747 23 Bolatice" class="cls-4">
    <g class="cls-4">
      <path class="cls-2" d="M108.98,3335.58l1.93-4.27c2.07,1.5,5.15,2.55,8.09,2.55,3.36,0,4.73-1.12,4.73-2.62,0-4.58-14.25-1.43-14.25-10.54,0-4.17,3.36-7.63,10.33-7.63,3.08,0,6.23.74,8.51,2.17l-1.75,4.3c-2.27-1.29-4.62-1.92-6.79-1.92-3.36,0-4.66,1.26-4.66,2.8,0,4.52,14.25,1.4,14.25,10.4,0,4.1-3.4,7.6-10.4,7.6-3.89,0-7.81-1.16-9.98-2.83Z"/>
      <path class="cls-2" d="M131.69,3325.75c0-7.39,5.67-12.67,13.3-12.67,4.24,0,7.77,1.54,10.08,4.34l-3.64,3.36c-1.65-1.89-3.71-2.87-6.16-2.87-4.59,0-7.84,3.22-7.84,7.84s3.25,7.84,7.84,7.84c2.45,0,4.52-.98,6.16-2.91l3.64,3.36c-2.31,2.83-5.85,4.38-10.12,4.38-7.6,0-13.27-5.29-13.27-12.67Z"/>
      <path class="cls-2" d="M181.36,3313.5v24.5h-5.67v-10.05h-11.13v10.05h-5.67v-24.5h5.67v9.66h11.13v-9.66h5.67Z"/>
      <path class="cls-2" d="M209.64,3313.5v24.5h-4.66l-12.22-14.88v14.88h-5.6v-24.5h4.69l12.18,14.88v-14.88h5.6Z"/>
      <path class="cls-2" d="M234.42,3333.45v4.55h-18.97v-24.5h18.52v4.55h-12.88v5.32h11.38v4.41h-11.38v5.67h13.34Z"/>
      <path class="cls-2" d="M238.93,3313.5h5.67v24.5h-5.67v-24.5Z"/>
      <path class="cls-2" d="M250.41,3313.5h11.13c8.02,0,13.51,4.83,13.51,12.25s-5.5,12.25-13.51,12.25h-11.13v-24.5ZM261.26,3333.34c4.87,0,8.05-2.91,8.05-7.6s-3.19-7.6-8.05-7.6h-5.18v15.19h5.18Z"/>
      <path class="cls-2" d="M298.3,3333.45v4.55h-18.97v-24.5h18.52v4.55h-12.88v5.32h11.38v4.41h-11.38v5.67h13.34Z"/>
      <path class="cls-2" d="M318.42,3338l-4.73-6.83h-5.22v6.83h-5.67v-24.5h10.61c6.55,0,10.64,3.4,10.64,8.89,0,3.67-1.85,6.37-5.04,7.74l5.5,7.88h-6.09ZM313.1,3318.12h-4.62v8.54h4.62c3.47,0,5.22-1.61,5.22-4.27s-1.75-4.27-5.22-4.27Z"/>
      <path class="cls-2" d="M336.65,3328.58c0-5.67,4.38-9.7,10.5-9.7,3.96,0,7.07,1.72,8.44,4.8l-4.24,2.28c-1.02-1.79-2.52-2.59-4.24-2.59-2.77,0-4.94,1.93-4.94,5.22s2.17,5.22,4.94,5.22c1.71,0,3.22-.77,4.24-2.59l4.24,2.31c-1.37,3.01-4.48,4.76-8.44,4.76-6.13,0-10.5-4.03-10.5-9.7Z"/>
      <path class="cls-2" d="M357.09,3328.58c0-5.67,4.38-9.7,10.36-9.7s10.33,4.03,10.33,9.7-4.34,9.7-10.33,9.7-10.36-4.03-10.36-9.7ZM372.25,3328.58c0-3.25-2.07-5.22-4.8-5.22s-4.83,1.96-4.83,5.22,2.1,5.22,4.83,5.22,4.8-1.96,4.8-5.22Z"/>
      <path class="cls-2" d="M400.67,3327.22v10.78h-5.46v-9.94c0-3.04-1.4-4.45-3.82-4.45-2.62,0-4.52,1.61-4.52,5.08v9.31h-5.46v-18.83h5.22v2.21c1.47-1.61,3.68-2.49,6.23-2.49,4.45,0,7.81,2.59,7.81,8.33Z"/>
      <path class="cls-2" d="M403.78,3336.25l1.82-3.92c1.68,1.08,4.24,1.82,6.55,1.82,2.52,0,3.47-.67,3.47-1.71,0-3.08-11.38.07-11.38-7.46,0-3.57,3.22-6.09,8.72-6.09,2.59,0,5.46.6,7.25,1.65l-1.82,3.89c-1.85-1.05-3.71-1.4-5.43-1.4-2.45,0-3.5.77-3.5,1.75,0,3.22,11.38.11,11.38,7.53,0,3.5-3.26,5.99-8.89,5.99-3.19,0-6.41-.88-8.16-2.03Z"/>
      <path class="cls-2" d="M436.33,3337.09c-1.12.8-2.77,1.19-4.45,1.19-4.45,0-7.04-2.28-7.04-6.76v-7.74h-2.91v-4.2h2.91v-4.58h5.46v4.58h4.69v4.2h-4.69v7.67c0,1.61.88,2.49,2.35,2.49.81,0,1.61-.25,2.21-.7l1.47,3.85Z"/>
      <path class="cls-2" d="M451.1,3318.89v5.04c-.46-.04-.81-.07-1.23-.07-3.01,0-5.01,1.65-5.01,5.25v8.89h-5.46v-18.83h5.22v2.49c1.33-1.82,3.57-2.77,6.48-2.77Z"/>
      <path class="cls-2" d="M473.47,3319.17v18.83h-5.18v-2.24c-1.44,1.65-3.54,2.52-5.85,2.52-4.73,0-8.05-2.66-8.05-8.47v-10.64h5.46v9.84c0,3.15,1.4,4.55,3.82,4.55s4.34-1.61,4.34-5.08v-9.31h5.46Z"/>
      <path class="cls-2" d="M477.14,3328.58c0-5.67,4.38-9.7,10.5-9.7,3.96,0,7.07,1.72,8.44,4.8l-4.24,2.28c-1.02-1.79-2.52-2.59-4.24-2.59-2.77,0-4.94,1.93-4.94,5.22s2.17,5.22,4.94,5.22c1.71,0,3.22-.77,4.24-2.59l4.24,2.31c-1.37,3.01-4.48,4.76-8.44,4.76-6.13,0-10.5-4.03-10.5-9.7Z"/>
      <path class="cls-2" d="M511.65,3337.09c-1.12.8-2.77,1.19-4.45,1.19-4.45,0-7.04-2.28-7.04-6.76v-7.74h-2.91v-4.2h2.91v-4.58h5.46v4.58h4.69v4.2h-4.69v7.67c0,1.61.88,2.49,2.35,2.49.81,0,1.61-.25,2.21-.7l1.47,3.85Z"/>
      <path class="cls-2" d="M514.06,3313.5c0-1.71,1.37-3.04,3.4-3.04s3.4,1.26,3.4,2.94c0,1.82-1.37,3.15-3.4,3.15s-3.4-1.33-3.4-3.05ZM514.73,3319.17h5.46v18.83h-5.46v-18.83Z"/>
      <path class="cls-2" d="M523.87,3328.58c0-5.67,4.38-9.7,10.36-9.7s10.33,4.03,10.33,9.7-4.34,9.7-10.33,9.7-10.36-4.03-10.36-9.7ZM539.02,3328.58c0-3.25-2.07-5.22-4.8-5.22s-4.83,1.96-4.83,5.22,2.1,5.22,4.83,5.22,4.8-1.96,4.8-5.22Z"/>
      <path class="cls-2" d="M567.44,3327.22v10.78h-5.46v-9.94c0-3.04-1.4-4.45-3.82-4.45-2.62,0-4.52,1.61-4.52,5.08v9.31h-5.46v-18.83h5.22v2.21c1.47-1.61,3.68-2.49,6.23-2.49,4.45,0,7.81,2.59,7.81,8.33Z"/>
      <path class="cls-2" d="M580.46,3336.25l1.82-3.92c1.68,1.08,4.24,1.82,6.55,1.82,2.52,0,3.47-.67,3.47-1.71,0-3.08-11.38.07-11.38-7.46,0-3.57,3.22-6.09,8.72-6.09,2.59,0,5.46.6,7.25,1.65l-1.82,3.89c-1.85-1.05-3.71-1.4-5.43-1.4-2.45,0-3.5.77-3.5,1.75,0,3.22,11.38.11,11.38,7.53,0,3.5-3.26,5.99-8.89,5.99-3.19,0-6.41-.88-8.16-2.03Z"/>
      <path class="cls-2" d="M599.53,3334.85c0-2.03,1.51-3.36,3.4-3.36s3.4,1.33,3.4,3.36-1.51,3.43-3.4,3.43-3.4-1.44-3.4-3.43Z"/>
      <path class="cls-2" d="M621.73,3318.89v5.04c-.46-.04-.81-.07-1.23-.07-3.01,0-5.01,1.65-5.01,5.25v8.89h-5.46v-18.83h5.22v2.49c1.33-1.82,3.57-2.77,6.48-2.77Z"/>
      <path class="cls-2" d="M623.44,3334.85c0-2.03,1.51-3.36,3.4-3.36s3.4,1.33,3.4,3.36-1.51,3.43-3.4,3.43-3.4-1.44-3.4-3.43Z"/>
      <path class="cls-2" d="M632.29,3328.58c0-5.67,4.38-9.7,10.36-9.7s10.33,4.03,10.33,9.7-4.34,9.7-10.33,9.7-10.36-4.03-10.36-9.7ZM647.45,3328.58c0-3.25-2.07-5.22-4.8-5.22s-4.83,1.96-4.83,5.22,2.1,5.22,4.83,5.22,4.8-1.96,4.8-5.22Z"/>
      <path class="cls-2" d="M655.04,3334.85c0-2.03,1.51-3.36,3.4-3.36s3.4,1.33,3.4,3.36-1.51,3.43-3.4,3.43-3.4-1.44-3.4-3.43Z"/>
    </g>
    <g class="cls-4">
      <path class="cls-2" d="M132.15,3367.39c0,5.46-4.1,8.86-10.64,8.86h-4.94v6.76h-5.67v-24.5h10.61c6.55,0,10.64,3.4,10.64,8.89ZM126.41,3367.39c0-2.7-1.75-4.27-5.22-4.27h-4.62v8.51h4.62c3.47,0,5.22-1.58,5.22-4.24Z"/>
      <path class="cls-2" d="M147.48,3363.89v5.04c-.46-.04-.81-.07-1.23-.07-3.01,0-5.01,1.65-5.01,5.25v8.89h-5.46v-18.83h5.22v2.49c1.33-1.82,3.57-2.77,6.48-2.77Z"/>
      <path class="cls-2" d="M169.85,3364.17v18.83h-5.18v-2.24c-1.44,1.65-3.54,2.52-5.85,2.52-4.73,0-8.05-2.66-8.05-8.47v-10.64h5.46v9.84c0,3.15,1.4,4.55,3.82,4.55s4.34-1.61,4.34-5.08v-9.31h5.46ZM155.95,3358.04c0-2.34,1.86-4.24,4.31-4.24s4.38,1.89,4.38,4.24-1.89,4.24-4.38,4.24-4.31-1.85-4.31-4.24ZM158.16,3358.04c0,1.23.91,2.14,2.1,2.14s2.14-.91,2.14-2.14-.91-2.13-2.14-2.13c-1.16,0-2.1.91-2.1,2.13Z"/>
      <path class="cls-2" d="M206.74,3372.22v10.78h-5.46v-9.94c0-3.04-1.37-4.45-3.57-4.45-2.45,0-4.17,1.58-4.17,4.94v9.45h-5.46v-9.94c0-3.04-1.29-4.45-3.57-4.45-2.42,0-4.13,1.58-4.13,4.94v9.45h-5.46v-18.83h5.22v2.17c1.4-1.61,3.5-2.45,5.92-2.45,2.63,0,4.87,1.02,6.2,3.08,1.5-1.93,3.96-3.08,6.79-3.08,4.48,0,7.7,2.59,7.7,8.33Z"/>
      <path class="cls-2" d="M229.98,3364.17l-8.51,19.99c-1.82,4.55-4.41,5.92-7.81,5.92-1.93,0-4.03-.63-5.25-1.71l2-3.89c.84.74,2,1.19,3.08,1.19,1.5,0,2.35-.67,3.08-2.34l.07-.18-8.16-18.97h5.64l5.29,12.78,5.32-12.78h5.25Z"/>
      <path class="cls-2" d="M230.12,3381.25l1.82-3.92c1.68,1.08,4.24,1.82,6.55,1.82,2.52,0,3.47-.67,3.47-1.71,0-3.08-11.38.07-11.38-7.46,0-3.57,3.22-6.09,8.72-6.09,2.59,0,5.46.6,7.25,1.65l-1.82,3.89c-1.85-1.05-3.71-1.4-5.43-1.4-2.45,0-3.5.77-3.5,1.75,0,3.22,11.38.11,11.38,7.53,0,3.5-3.26,5.99-8.89,5.99-3.19,0-6.41-.88-8.16-2.03Z"/>
      <path class="cls-2" d="M250.52,3357.03h5.46v25.97h-5.46v-25.97Z"/>
      <path class="cls-2" d="M259.65,3373.58c0-5.67,4.38-9.7,10.36-9.7s10.33,4.03,10.33,9.7-4.34,9.7-10.33,9.7-10.36-4.03-10.36-9.7ZM274.81,3373.58c0-3.25-2.07-5.22-4.8-5.22s-4.83,1.96-4.83,5.22,2.1,5.22,4.83,5.22,4.8-1.96,4.8-5.22Z"/>
      <path class="cls-2" d="M302.15,3364.17l-7.95,18.83h-5.64l-7.91-18.83h5.64l5.22,12.81,5.39-12.81h5.25Z"/>
      <path class="cls-2" d="M320.42,3372.25v10.75h-5.11v-2.35c-1.02,1.72-2.98,2.63-5.74,2.63-4.41,0-7.04-2.45-7.04-5.71s2.35-5.64,8.09-5.64h4.34c0-2.34-1.4-3.71-4.34-3.71-2,0-4.06.67-5.43,1.75l-1.96-3.82c2.07-1.47,5.11-2.28,8.12-2.28,5.74,0,9.07,2.66,9.07,8.37ZM314.96,3377.05v-1.93h-3.75c-2.56,0-3.36.95-3.36,2.21,0,1.37,1.16,2.28,3.08,2.28,1.82,0,3.4-.84,4.03-2.55ZM313,3361.75h-4.27l4.73-5.04h5.88l-6.34,5.04Z"/>
      <path class="cls-2" d="M348.56,3376.21l4.24,2.31c-1.37,3.01-4.48,4.76-8.44,4.76-6.13,0-10.5-4.03-10.5-9.7s4.38-9.7,10.5-9.7c3.96,0,7.07,1.72,8.44,4.8l-4.24,2.28c-1.02-1.79-2.52-2.59-4.24-2.59-2.77,0-4.94,1.93-4.94,5.22s2.17,5.22,4.94,5.22c1.71,0,3.22-.77,4.24-2.59ZM341.27,3361.75l-4.62-5.04h3.99l3.05,2.63,3.05-2.63h3.99l-4.62,5.04h-4.83Z"/>
      <path class="cls-2" d="M355.31,3379.85c0-2.03,1.51-3.36,3.4-3.36s3.4,1.33,3.4,3.36-1.51,3.43-3.4,3.43-3.4-1.44-3.4-3.43Z"/>
      <path class="cls-2" d="M384.22,3370.22c0,8.47-5.08,13.2-12.5,13.2-2.59,0-5.08-.59-6.79-1.68l2.1-4.17c1.33.91,2.91,1.23,4.59,1.23,4.06,0,6.72-2.42,6.9-7.14-1.44,1.43-3.54,2.21-6.09,2.21-4.73,0-8.44-3.01-8.44-7.63,0-5.01,4.1-8.16,9.28-8.16,6.79,0,10.96,4.24,10.96,12.15ZM377.88,3365.95c0-2.1-1.58-3.64-4.27-3.64-2.42,0-4.1,1.4-4.1,3.64s1.65,3.68,4.17,3.68,4.2-1.54,4.2-3.68Z"/>
      <path class="cls-2" d="M405.46,3375.3c0,4.34-3.19,8.12-10.19,8.12-3.4,0-6.97-.95-9.35-2.62l2.24-4.34c1.85,1.4,4.41,2.21,6.97,2.21,2.83,0,4.59-1.19,4.59-3.18s-1.26-3.19-5.71-3.19h-6.27l1.26-13.79h14.95v4.55h-10.22l-.38,4.66h2c7.25,0,10.12,3.26,10.12,7.6Z"/>
      <path class="cls-2" d="M426.53,3358.5v3.68l-9.1,20.83h-6.16l8.79-19.88h-8.12v3.99h-5.04v-8.61h19.64Z"/>
      <path class="cls-2" d="M436.72,3353.53h4.87l-11.55,32.97h-4.87l11.55-32.97Z"/>
      <path class="cls-2" d="M459.92,3375.3c0,4.34-3.19,8.12-10.19,8.12-3.4,0-6.97-.95-9.35-2.62l2.24-4.34c1.85,1.4,4.41,2.21,6.97,2.21,2.83,0,4.59-1.19,4.59-3.18s-1.26-3.19-5.71-3.19h-6.27l1.26-13.79h14.95v4.55h-10.22l-.38,4.66h2c7.25,0,10.12,3.26,10.12,7.6Z"/>
    </g>
    <g class="cls-4">
      <path class="cls-2" d="M128.55,3403.5v3.68l-9.1,20.83h-6.16l8.79-19.88h-8.12v3.99h-5.04v-8.61h19.64Z"/>
      <path class="cls-2" d="M151.23,3422.85h-3.99v5.15h-5.53v-5.15h-13.2v-3.82l11.55-15.54h5.95l-10.71,14.74h6.58v-4.59h5.36v4.59h3.99v4.62Z"/>
      <path class="cls-2" d="M170.62,3403.5v3.68l-9.1,20.83h-6.16l8.79-19.88h-8.12v3.99h-5.04v-8.61h19.64Z"/>
      <path class="cls-2" d="M201.35,3423.38v4.62h-18.52v-3.68l9.45-8.93c2.17-2.07,2.56-3.33,2.56-4.52,0-1.92-1.33-3.04-3.92-3.04-2.1,0-3.89.8-5.08,2.45l-4.13-2.66c1.89-2.77,5.32-4.55,9.73-4.55,5.46,0,9.1,2.8,9.1,7.25,0,2.38-.67,4.55-4.1,7.74l-5.64,5.32h10.54Z"/>
      <path class="cls-2" d="M221.79,3420.51c0,4.13-3.19,7.91-10.15,7.91-3.43,0-6.97-.95-9.35-2.62l2.21-4.34c1.85,1.4,4.45,2.21,7,2.21,2.84,0,4.59-1.15,4.59-3.15,0-1.85-1.37-3.01-4.59-3.01h-2.59v-3.75l5.04-5.71h-10.43v-4.55h17.15v3.68l-5.53,6.3c4.41.7,6.65,3.43,6.65,7.04Z"/>
      <path class="cls-2" d="M258.33,3421.31c0,4.24-3.36,6.69-9.8,6.69h-12.67v-24.5h11.97c6.13,0,9.28,2.56,9.28,6.37,0,2.45-1.26,4.34-3.26,5.39,2.73.88,4.48,2.98,4.48,6.06ZM241.49,3407.77v5.78h5.64c2.77,0,4.27-.98,4.27-2.91s-1.5-2.87-4.27-2.87h-5.64ZM252.62,3420.72c0-2.06-1.58-3.04-4.52-3.04h-6.62v6.06h6.62c2.94,0,4.52-.91,4.52-3.01Z"/>
      <path class="cls-2" d="M260.84,3418.58c0-5.67,4.38-9.7,10.36-9.7s10.33,4.03,10.33,9.7-4.34,9.7-10.33,9.7-10.36-4.03-10.36-9.7ZM276,3418.58c0-3.25-2.07-5.22-4.8-5.22s-4.83,1.96-4.83,5.22,2.1,5.22,4.83,5.22,4.8-1.96,4.8-5.22Z"/>
      <path class="cls-2" d="M285.17,3402.03h5.46v25.97h-5.46v-25.97Z"/>
      <path class="cls-2" d="M312.37,3417.25v10.75h-5.11v-2.35c-1.02,1.72-2.98,2.63-5.74,2.63-4.41,0-7.04-2.45-7.04-5.71s2.35-5.64,8.09-5.64h4.34c0-2.34-1.4-3.71-4.34-3.71-2,0-4.06.67-5.43,1.75l-1.96-3.82c2.07-1.47,5.11-2.28,8.12-2.28,5.74,0,9.07,2.66,9.07,8.37ZM306.91,3422.05v-1.93h-3.75c-2.56,0-3.36.95-3.36,2.21,0,1.37,1.16,2.28,3.08,2.28,1.82,0,3.4-.84,4.03-2.55Z"/>
      <path class="cls-2" d="M329.44,3427.09c-1.12.8-2.77,1.19-4.45,1.19-4.45,0-7.04-2.28-7.04-6.76v-7.74h-2.91v-4.2h2.91v-4.58h5.46v4.58h4.69v4.2h-4.69v7.67c0,1.61.88,2.49,2.35,2.49.81,0,1.61-.25,2.21-.7l1.47,3.85Z"/>
      <path class="cls-2" d="M331.86,3403.5c0-1.71,1.37-3.04,3.4-3.04s3.4,1.26,3.4,2.94c0,1.82-1.37,3.15-3.4,3.15s-3.4-1.33-3.4-3.05ZM332.52,3409.17h5.46v18.83h-5.46v-18.83Z"/>
      <path class="cls-2" d="M341.66,3418.58c0-5.67,4.38-9.7,10.5-9.7,3.96,0,7.07,1.72,8.44,4.8l-4.24,2.28c-1.02-1.79-2.52-2.59-4.24-2.59-2.77,0-4.94,1.93-4.94,5.22s2.17,5.22,4.94,5.22c1.71,0,3.22-.77,4.24-2.59l4.24,2.31c-1.37,3.01-4.48,4.76-8.44,4.76-6.13,0-10.5-4.03-10.5-9.7Z"/>
      <path class="cls-2" d="M381.84,3420.12h-14.25c.52,2.35,2.52,3.78,5.39,3.78,2,0,3.43-.59,4.73-1.82l2.91,3.15c-1.75,2-4.38,3.05-7.77,3.05-6.51,0-10.75-4.1-10.75-9.7s4.31-9.7,10.05-9.7,9.8,3.71,9.8,9.77c0,.42-.07,1.01-.1,1.47ZM367.52,3416.94h9.28c-.39-2.38-2.17-3.92-4.62-3.92s-4.27,1.5-4.66,3.92Z"/>
    </g>
  </g>
  <g>
    <path class="cls-2" d="M1035.11,3392.34l-6.83,18.83h-5.25l-4.24-11.69-4.38,11.69h-5.25l-6.79-18.83h5.15l4.45,12.74,4.62-12.74h4.62l4.48,12.74,4.59-12.74h4.83Z"/>
    <path class="cls-2" d="M1067.45,3392.34l-6.83,18.83h-5.25l-4.24-11.69-4.38,11.69h-5.25l-6.79-18.83h5.15l4.45,12.74,4.62-12.74h4.62l4.48,12.74,4.59-12.74h4.83Z"/>
    <path class="cls-2" d="M1099.79,3392.34l-6.83,18.83h-5.25l-4.24-11.69-4.38,11.69h-5.25l-6.79-18.83h5.15l4.45,12.74,4.62-12.74h4.62l4.48,12.74,4.59-12.74h4.83Z"/>
    <path class="cls-2" d="M1099.89,3408.02c0-2.03,1.51-3.36,3.4-3.36s3.4,1.33,3.4,3.36-1.51,3.43-3.4,3.43-3.4-1.44-3.4-3.43Z"/>
    <path class="cls-2" d="M1129.64,3400.39v10.78h-5.46v-9.94c0-3.04-1.4-4.45-3.82-4.45-2.62,0-4.52,1.61-4.52,5.08v9.31h-5.46v-25.97h5.46v9.1c1.47-1.47,3.57-2.24,5.99-2.24,4.45,0,7.81,2.59,7.81,8.33Z"/>
    <path class="cls-2" d="M1134.58,3385.2h5.46v25.97h-5.46v-25.97Z"/>
    <path class="cls-2" d="M1144.44,3386.67c0-1.71,1.37-3.04,3.4-3.04s3.4,1.26,3.4,2.94c0,1.82-1.37,3.15-3.4,3.15s-3.4-1.33-3.4-3.05ZM1145.11,3392.34h5.46v18.83h-5.46v-18.83Z"/>
    <path class="cls-2" d="M1174.9,3400.39v10.78h-5.46v-9.94c0-3.04-1.4-4.45-3.82-4.45-2.62,0-4.52,1.61-4.52,5.08v9.31h-5.46v-18.83h5.22v2.21c1.47-1.61,3.68-2.49,6.23-2.49,4.45,0,7.81,2.59,7.81,8.33Z"/>
    <path class="cls-2" d="M1179.16,3386.67c0-1.71,1.37-3.04,3.4-3.04s3.4,1.26,3.4,2.94c0,1.82-1.37,3.15-3.4,3.15s-3.4-1.33-3.4-3.05ZM1179.83,3392.34h5.46v18.83h-5.46v-18.83Z"/>
    <path class="cls-2" d="M1198.45,3403.79l-2.62,2.59v4.8h-5.46v-25.97h5.46v14.7l7.98-7.56h6.51l-7.84,7.98,8.54,10.85h-6.62l-5.95-7.39Z"/>
    <path class="cls-2" d="M1211.26,3401.75c0-5.67,4.38-9.7,10.36-9.7s10.33,4.03,10.33,9.7-4.34,9.7-10.33,9.7-10.36-4.03-10.36-9.7ZM1226.42,3401.75c0-3.25-2.07-5.22-4.8-5.22s-4.83,1.96-4.83,5.22,2.1,5.22,4.83,5.22,4.8-1.96,4.8-5.22Z"/>
    <path class="cls-2" d="M1253.75,3392.34l-7.95,18.83h-5.64l-7.91-18.83h5.64l5.22,12.81,5.39-12.81h5.25Z"/>
    <path class="cls-2" d="M1273.81,3403.29h-14.25c.53,2.35,2.52,3.78,5.39,3.78,2,0,3.43-.59,4.73-1.82l2.91,3.15c-1.75,2-4.38,3.05-7.77,3.05-6.51,0-10.75-4.1-10.75-9.7s4.31-9.7,10.05-9.7,9.8,3.71,9.8,9.77c0,.42-.07,1.01-.1,1.47ZM1259.49,3400.11h9.28c-.38-2.38-2.17-3.92-4.62-3.92s-4.27,1.5-4.66,3.92Z"/>
    <path class="cls-2" d="M1275.73,3409.42l1.82-3.92c1.68,1.08,4.24,1.82,6.54,1.82,2.52,0,3.47-.67,3.47-1.71,0-3.08-11.38.07-11.38-7.46,0-3.57,3.22-6.09,8.72-6.09,2.59,0,5.46.6,7.25,1.65l-1.82,3.89c-1.85-1.05-3.71-1.4-5.42-1.4-2.45,0-3.5.77-3.5,1.75,0,3.22,11.38.11,11.38,7.53,0,3.5-3.26,5.99-8.89,5.99-3.19,0-6.41-.88-8.16-2.03Z"/>
    <path class="cls-2" d="M1314.48,3392.34l-8.51,19.99c-1.82,4.55-4.41,5.92-7.81,5.92-1.92,0-4.03-.63-5.25-1.71l2-3.89c.84.74,2,1.19,3.08,1.19,1.5,0,2.35-.67,3.08-2.34l.07-.18-8.16-18.97h5.63l5.29,12.78,5.32-12.78h5.25Z"/>
    <path class="cls-2" d="M1314.61,3409.42l1.82-3.92c1.68,1.08,4.24,1.82,6.54,1.82,2.52,0,3.47-.67,3.47-1.71,0-3.08-11.38.07-11.38-7.46,0-3.57,3.22-6.09,8.72-6.09,2.59,0,5.46.6,7.25,1.65l-1.82,3.89c-1.85-1.05-3.71-1.4-5.42-1.4-2.45,0-3.5.77-3.5,1.75,0,3.22,11.38.11,11.38,7.53,0,3.5-3.26,5.99-8.89,5.99-3.19,0-6.41-.88-8.16-2.03Z"/>
    <path class="cls-2" d="M1347.16,3410.26c-1.12.8-2.77,1.19-4.45,1.19-4.45,0-7.04-2.28-7.04-6.76v-7.74h-2.91v-4.2h2.91v-4.58h5.46v4.58h4.69v4.2h-4.69v7.67c0,1.61.88,2.49,2.34,2.49.81,0,1.61-.25,2.21-.7l1.47,3.85Z"/>
    <path class="cls-2" d="M1367.99,3403.29h-14.25c.52,2.35,2.52,3.78,5.39,3.78,2,0,3.43-.59,4.73-1.82l2.91,3.15c-1.75,2-4.38,3.05-7.77,3.05-6.51,0-10.75-4.1-10.75-9.7s4.31-9.7,10.05-9.7,9.8,3.71,9.8,9.77c0,.42-.07,1.01-.11,1.47ZM1353.67,3400.11h9.28c-.39-2.38-2.17-3.92-4.62-3.92s-4.27,1.5-4.66,3.92Z"/>
    <path class="cls-2" d="M1403.55,3400.39v10.78h-5.46v-9.94c0-3.04-1.37-4.45-3.57-4.45-2.45,0-4.17,1.58-4.17,4.94v9.45h-5.46v-9.94c0-3.04-1.29-4.45-3.57-4.45-2.42,0-4.13,1.58-4.13,4.94v9.45h-5.46v-18.83h5.22v2.17c1.4-1.61,3.5-2.45,5.92-2.45,2.63,0,4.87,1.02,6.2,3.08,1.5-1.93,3.96-3.08,6.79-3.08,4.48,0,7.7,2.59,7.7,8.33Z"/>
    <path class="cls-2" d="M1426.79,3392.34l-8.51,19.99c-1.82,4.55-4.41,5.92-7.81,5.92-1.92,0-4.03-.63-5.25-1.71l2-3.89c.84.74,2,1.19,3.08,1.19,1.5,0,2.34-.67,3.08-2.34l.07-.18-8.16-18.97h5.64l5.29,12.78,5.32-12.78h5.25Z"/>
    <path class="cls-2" d="M1426.58,3408.02c0-2.03,1.5-3.36,3.4-3.36s3.39,1.33,3.39,3.36-1.5,3.43-3.39,3.43-3.4-1.44-3.4-3.43Z"/>
    <path class="cls-2" d="M1435.43,3401.75c0-5.67,4.38-9.7,10.5-9.7,3.96,0,7.07,1.72,8.44,4.8l-4.24,2.28c-1.01-1.79-2.52-2.59-4.24-2.59-2.76,0-4.94,1.93-4.94,5.22s2.17,5.22,4.94,5.22c1.72,0,3.22-.77,4.24-2.59l4.24,2.31c-1.36,3.01-4.48,4.76-8.44,4.76-6.13,0-10.5-4.03-10.5-9.7Z"/>
    <path class="cls-2" d="M1472.88,3406.97v4.2h-16.8v-3.29l9.59-11.34h-9.35v-4.2h16.24v3.29l-9.59,11.34h9.91Z"/>
  </g>
  <g id="GSM_420_602_331_047_E-MAIL:_obchod_hlinikovesystemy.cz" data-name="GSM 420 602 331 047 E-MAIL: obchod hlinikovesystemy.cz" class="cls-4">
    <g class="cls-4">
      <path class="cls-2" d="M1708.46,3371.36h5.18v9.94c-2.7,2.03-6.41,3.12-9.91,3.12-7.7,0-13.37-5.29-13.37-12.67s5.67-12.67,13.48-12.67c4.3,0,7.88,1.47,10.26,4.24l-3.64,3.36c-1.79-1.89-3.85-2.76-6.34-2.76-4.76,0-8.02,3.18-8.02,7.84s3.26,7.84,7.95,7.84c1.54,0,2.98-.28,4.41-1.05v-7.18Z"/>
      <path class="cls-2" d="M1716.96,3381.58l1.93-4.27c2.06,1.5,5.14,2.55,8.09,2.55,3.36,0,4.72-1.12,4.72-2.62,0-4.58-14.25-1.43-14.25-10.54,0-4.17,3.36-7.63,10.33-7.63,3.08,0,6.23.74,8.51,2.17l-1.75,4.3c-2.28-1.29-4.62-1.92-6.79-1.92-3.36,0-4.66,1.26-4.66,2.8,0,4.52,14.25,1.4,14.25,10.4,0,4.1-3.4,7.6-10.4,7.6-3.89,0-7.81-1.16-9.98-2.83Z"/>
      <path class="cls-2" d="M1763.52,3384l-.04-14.7-7.21,12.11h-2.56l-7.17-11.8v14.39h-5.32v-24.5h4.69l9.17,15.23,9.03-15.23h4.66l.07,24.5h-5.32Z"/>
      <path class="cls-2" d="M1800.48,3373.88h-6.09v5.95h-4.52v-5.95h-6.05v-4.27h6.05v-5.95h4.52v5.95h6.09v4.27Z"/>
      <path class="cls-2" d="M1826.55,3378.85h-3.99v5.15h-5.53v-5.15h-13.2v-3.82l11.55-15.54h5.95l-10.71,14.74h6.58v-4.59h5.36v4.59h3.99v4.62Z"/>
      <path class="cls-2" d="M1846.46,3379.38v4.62h-18.52v-3.68l9.45-8.93c2.17-2.07,2.56-3.33,2.56-4.52,0-1.92-1.33-3.04-3.92-3.04-2.1,0-3.89.8-5.08,2.45l-4.13-2.66c1.89-2.77,5.32-4.55,9.73-4.55,5.46,0,9.1,2.8,9.1,7.25,0,2.38-.67,4.55-4.1,7.74l-5.63,5.32h10.54Z"/>
      <path class="cls-2" d="M1848.74,3371.75c0-8.09,4.48-12.67,10.5-12.67s10.5,4.59,10.5,12.67-4.45,12.67-10.5,12.67-10.5-4.58-10.5-12.67ZM1864.04,3371.75c0-5.57-1.96-7.88-4.8-7.88s-4.76,2.31-4.76,7.88,1.96,7.88,4.76,7.88,4.8-2.31,4.8-7.88Z"/>
      <path class="cls-2" d="M1902.64,3376.26c0,5-4.09,8.16-9.28,8.16-6.76,0-10.96-4.24-10.96-12.15,0-8.47,5.11-13.2,12.5-13.2,2.59,0,5.11.6,6.83,1.68l-2.1,4.17c-1.37-.91-2.94-1.22-4.58-1.22-4.09,0-6.72,2.42-6.9,7.11,1.44-1.44,3.5-2.17,6.06-2.17,4.73,0,8.44,3.01,8.44,7.63ZM1897.14,3376.54c0-2.24-1.65-3.67-4.17-3.67s-4.24,1.54-4.24,3.67,1.58,3.64,4.31,3.64c2.42,0,4.1-1.4,4.1-3.64Z"/>
      <path class="cls-2" d="M1904.7,3371.75c0-8.09,4.48-12.67,10.5-12.67s10.5,4.59,10.5,12.67-4.45,12.67-10.5,12.67-10.5-4.58-10.5-12.67ZM1920,3371.75c0-5.57-1.96-7.88-4.79-7.88s-4.76,2.31-4.76,7.88,1.96,7.88,4.76,7.88,4.79-2.31,4.79-7.88Z"/>
      <path class="cls-2" d="M1946.56,3379.38v4.62h-18.52v-3.68l9.45-8.93c2.17-2.07,2.55-3.33,2.55-4.52,0-1.92-1.33-3.04-3.92-3.04-2.1,0-3.89.8-5.08,2.45l-4.13-2.66c1.89-2.77,5.32-4.55,9.73-4.55,5.46,0,9.1,2.8,9.1,7.25,0,2.38-.67,4.55-4.1,7.74l-5.64,5.32h10.54Z"/>
      <path class="cls-2" d="M1976.91,3376.51c0,4.13-3.19,7.91-10.15,7.91-3.43,0-6.97-.95-9.35-2.62l2.21-4.34c1.85,1.4,4.45,2.21,7,2.21,2.84,0,4.59-1.15,4.59-3.15,0-1.85-1.37-3.01-4.59-3.01h-2.59v-3.75l5.04-5.71h-10.43v-4.55h17.15v3.68l-5.53,6.3c4.41.7,6.65,3.43,6.65,7.04Z"/>
      <path class="cls-2" d="M1997.45,3376.51c0,4.13-3.19,7.91-10.15,7.91-3.43,0-6.97-.95-9.35-2.62l2.21-4.34c1.85,1.4,4.45,2.21,7,2.21,2.84,0,4.59-1.15,4.59-3.15,0-1.85-1.37-3.01-4.59-3.01h-2.59v-3.75l5.04-5.71h-10.43v-4.55h17.15v3.68l-5.53,6.3c4.41.7,6.65,3.43,6.65,7.04Z"/>
      <path class="cls-2" d="M2009.53,3359.5v24.5h-5.67v-19.95h-4.9v-4.55h10.57Z"/>
      <path class="cls-2" d="M2023.7,3371.75c0-8.09,4.48-12.67,10.5-12.67s10.5,4.59,10.5,12.67-4.45,12.67-10.5,12.67-10.5-4.58-10.5-12.67ZM2039,3371.75c0-5.57-1.96-7.88-4.8-7.88s-4.76,2.31-4.76,7.88,1.96,7.88,4.76,7.88,4.8-2.31,4.8-7.88Z"/>
      <path class="cls-2" d="M2069.9,3378.85h-3.99v5.15h-5.53v-5.15h-13.2v-3.82l11.55-15.54h5.95l-10.71,14.74h6.58v-4.59h5.36v4.59h3.99v4.62Z"/>
      <path class="cls-2" d="M2089.29,3359.5v3.68l-9.1,20.83h-6.16l8.79-19.88h-8.12v3.99h-5.04v-8.61h19.64Z"/>
    </g>
    <g class="cls-4">
      <path class="cls-2" d="M1710.88,3424.45v4.55h-18.97v-24.5h18.52v4.55h-12.88v5.32h11.38v4.41h-11.38v5.67h13.34Z"/>
      <path class="cls-2" d="M1713.61,3416.96h9.91v4.38h-9.91v-4.38Z"/>
      <path class="cls-2" d="M1750.5,3429l-.04-14.7-7.21,12.11h-2.56l-7.18-11.8v14.39h-5.32v-24.5h4.69l9.17,15.23,9.03-15.23h4.66l.07,24.5h-5.32Z"/>
      <path class="cls-2" d="M1777.76,3423.75h-11.38l-2.17,5.25h-5.81l10.92-24.5h5.6l10.96,24.5h-5.95l-2.17-5.25ZM1775.98,3419.44l-3.89-9.38-3.89,9.38h7.77Z"/>
      <path class="cls-2" d="M1788.43,3404.5h5.67v24.5h-5.67v-24.5Z"/>
      <path class="cls-2" d="M1799.91,3404.5h5.67v19.88h12.29v4.62h-17.96v-24.5Z"/>
      <path class="cls-2" d="M1820.04,3413.28c0-2.03,1.51-3.36,3.4-3.36s3.39,1.33,3.39,3.36-1.5,3.43-3.39,3.43-3.4-1.44-3.4-3.43ZM1820.04,3425.85c0-2.03,1.51-3.36,3.4-3.36s3.39,1.33,3.39,3.36-1.5,3.43-3.39,3.43-3.4-1.44-3.4-3.43Z"/>
      <path class="cls-2" d="M1839.04,3419.58c0-5.67,4.38-9.7,10.36-9.7s10.33,4.03,10.33,9.7-4.34,9.7-10.33,9.7-10.36-4.03-10.36-9.7ZM1854.2,3419.58c0-3.25-2.07-5.22-4.8-5.22s-4.83,1.96-4.83,5.22,2.1,5.22,4.83,5.22,4.8-1.96,4.8-5.22Z"/>
      <path class="cls-2" d="M1883.88,3419.58c0,5.92-4.1,9.7-9.38,9.7-2.52,0-4.55-.81-5.92-2.45v2.17h-5.21v-25.97h5.46v9.14c1.4-1.54,3.32-2.28,5.67-2.28,5.29,0,9.38,3.78,9.38,9.7ZM1878.35,3419.58c0-3.25-2.07-5.22-4.8-5.22s-4.79,1.96-4.79,5.22,2.06,5.22,4.79,5.22,4.8-1.96,4.8-5.22Z"/>
      <path class="cls-2" d="M1886.12,3419.58c0-5.67,4.38-9.7,10.5-9.7,3.96,0,7.07,1.72,8.44,4.8l-4.24,2.28c-1.02-1.79-2.52-2.59-4.24-2.59-2.77,0-4.94,1.93-4.94,5.22s2.17,5.22,4.94,5.22c1.71,0,3.22-.77,4.24-2.59l4.24,2.31c-1.37,3.01-4.48,4.76-8.44,4.76-6.12,0-10.5-4.03-10.5-9.7Z"/>
      <path class="cls-2" d="M1927.31,3418.22v10.78h-5.46v-9.94c0-3.04-1.4-4.45-3.82-4.45-2.62,0-4.52,1.61-4.52,5.08v9.31h-5.46v-25.97h5.46v9.1c1.47-1.47,3.57-2.24,5.99-2.24,4.45,0,7.81,2.59,7.81,8.33Z"/>
      <path class="cls-2" d="M1931.06,3419.58c0-5.67,4.38-9.7,10.36-9.7s10.33,4.03,10.33,9.7-4.34,9.7-10.33,9.7-10.36-4.03-10.36-9.7ZM1946.21,3419.58c0-3.25-2.07-5.22-4.8-5.22s-4.83,1.96-4.83,5.22,2.1,5.22,4.83,5.22,4.8-1.96,4.8-5.22Z"/>
      <path class="cls-2" d="M1974.56,3403.03v25.97h-5.21v-2.17c-1.37,1.64-3.36,2.45-5.88,2.45-5.32,0-9.42-3.78-9.42-9.7s4.1-9.7,9.42-9.7c2.31,0,4.27.74,5.64,2.28v-9.14h5.46ZM1969.21,3419.58c0-3.25-2.1-5.22-4.79-5.22s-4.83,1.96-4.83,5.22,2.1,5.22,4.83,5.22,4.79-1.96,4.79-5.22Z"/>
      <path class="cls-2" d="M2011.94,3419.41c0,6.27-2.87,9.84-7.18,9.84-2.38,0-4.06-1.05-4.79-3.05-1.22,1.96-3.22,3.05-5.99,3.05-4.52,0-8.09-3.57-8.09-8.86s3.54-8.82,8.09-8.82c2.31,0,4.13.8,5.39,2.31v-2.07h4.76v11.34c0,1.68.74,2.24,1.68,2.24,1.61,0,2.59-1.86,2.59-5.92,0-7.11-5.25-12.01-13.02-12.01s-13.02,5.32-13.02,12.64,5.11,12.74,12.88,12.74c2.21,0,4.69-.46,6.9-1.54l1.12,3.22c-2.14,1.08-5.25,1.68-8.02,1.68-10.12,0-16.8-6.86-16.8-16.1s6.76-15.96,16.94-15.96,16.56,6.48,16.56,15.26ZM1999.45,3420.39c0-3.04-1.86-4.76-4.38-4.76s-4.34,1.79-4.34,4.76,1.79,4.83,4.34,4.83,4.38-1.75,4.38-4.83Z"/>
      <path class="cls-2" d="M2035.08,3418.22v10.78h-5.46v-9.94c0-3.04-1.4-4.45-3.82-4.45-2.62,0-4.52,1.61-4.52,5.08v9.31h-5.46v-25.97h5.46v9.1c1.47-1.47,3.57-2.24,5.99-2.24,4.45,0,7.81,2.59,7.81,8.33Z"/>
      <path class="cls-2" d="M2040.01,3403.03h5.46v25.97h-5.46v-25.97Z"/>
      <path class="cls-2" d="M2049.88,3404.5c0-1.71,1.37-3.04,3.4-3.04s3.39,1.26,3.39,2.94c0,1.82-1.37,3.15-3.39,3.15s-3.4-1.33-3.4-3.05ZM2050.54,3410.17h5.46v18.83h-5.46v-18.83Z"/>
      <path class="cls-2" d="M2080.33,3418.22v10.78h-5.46v-9.94c0-3.04-1.4-4.45-3.82-4.45-2.62,0-4.51,1.61-4.51,5.08v9.31h-5.46v-18.83h5.21v2.21c1.47-1.61,3.68-2.49,6.23-2.49,4.45,0,7.81,2.59,7.81,8.33Z"/>
      <path class="cls-2" d="M2084.6,3404.5c0-1.71,1.37-3.04,3.39-3.04s3.4,1.26,3.4,2.94c0,1.82-1.37,3.15-3.4,3.15s-3.39-1.33-3.39-3.05ZM2085.26,3410.17h5.46v18.83h-5.46v-18.83Z"/>
      <path class="cls-2" d="M2103.88,3421.61l-2.62,2.59v4.8h-5.46v-25.97h5.46v14.7l7.98-7.56h6.51l-7.84,7.98,8.54,10.85h-6.62l-5.95-7.39Z"/>
      <path class="cls-2" d="M2116.69,3419.58c0-5.67,4.38-9.7,10.36-9.7s10.33,4.03,10.33,9.7-4.34,9.7-10.33,9.7-10.36-4.03-10.36-9.7ZM2131.85,3419.58c0-3.25-2.07-5.22-4.8-5.22s-4.83,1.96-4.83,5.22,2.1,5.22,4.83,5.22,4.8-1.96,4.8-5.22Z"/>
      <path class="cls-2" d="M2159.19,3410.17l-7.95,18.83h-5.64l-7.91-18.83h5.64l5.22,12.81,5.39-12.81h5.25Z"/>
      <path class="cls-2" d="M2179.24,3421.12h-14.25c.53,2.35,2.52,3.78,5.39,3.78,2,0,3.43-.59,4.73-1.82l2.91,3.15c-1.75,2-4.38,3.05-7.77,3.05-6.51,0-10.75-4.1-10.75-9.7s4.31-9.7,10.05-9.7,9.8,3.71,9.8,9.77c0,.42-.07,1.01-.11,1.47ZM2164.92,3417.94h9.28c-.39-2.38-2.17-3.92-4.62-3.92s-4.27,1.5-4.66,3.92Z"/>
      <path class="cls-2" d="M2181.16,3427.25l1.82-3.92c1.68,1.08,4.24,1.82,6.55,1.82,2.52,0,3.46-.67,3.46-1.71,0-3.08-11.38.07-11.38-7.46,0-3.57,3.22-6.09,8.71-6.09,2.59,0,5.46.6,7.25,1.65l-1.82,3.89c-1.86-1.05-3.71-1.4-5.43-1.4-2.45,0-3.5.77-3.5,1.75,0,3.22,11.38.11,11.38,7.53,0,3.5-3.26,5.99-8.89,5.99-3.19,0-6.41-.88-8.16-2.03Z"/>
      <path class="cls-2" d="M2219.91,3410.17l-8.51,19.99c-1.82,4.55-4.41,5.92-7.81,5.92-1.92,0-4.03-.63-5.25-1.71l2-3.89c.84.74,2,1.19,3.08,1.19,1.5,0,2.35-.67,3.08-2.34l.07-.18-8.16-18.97h5.64l5.29,12.78,5.32-12.78h5.25Z"/>
      <path class="cls-2" d="M2220.05,3427.25l1.82-3.92c1.68,1.08,4.24,1.82,6.55,1.82,2.52,0,3.46-.67,3.46-1.71,0-3.08-11.38.07-11.38-7.46,0-3.57,3.22-6.09,8.71-6.09,2.59,0,5.46.6,7.25,1.65l-1.82,3.89c-1.86-1.05-3.71-1.4-5.43-1.4-2.45,0-3.5.77-3.5,1.75,0,3.22,11.38.11,11.38,7.53,0,3.5-3.26,5.99-8.89,5.99-3.19,0-6.41-.88-8.16-2.03Z"/>
      <path class="cls-2" d="M2252.6,3428.09c-1.12.8-2.77,1.19-4.45,1.19-4.45,0-7.04-2.28-7.04-6.76v-7.74h-2.91v-4.2h2.91v-4.58h5.46v4.58h4.69v4.2h-4.69v7.67c0,1.61.88,2.49,2.35,2.49.8,0,1.61-.25,2.21-.7l1.47,3.85Z"/>
      <path class="cls-2" d="M2273.42,3421.12h-14.25c.53,2.35,2.52,3.78,5.39,3.78,2,0,3.43-.59,4.73-1.82l2.9,3.15c-1.75,2-4.38,3.05-7.77,3.05-6.51,0-10.75-4.1-10.75-9.7s4.31-9.7,10.05-9.7,9.8,3.71,9.8,9.77c0,.42-.07,1.01-.1,1.47ZM2259.11,3417.94h9.28c-.39-2.38-2.17-3.92-4.62-3.92s-4.27,1.5-4.66,3.92Z"/>
      <path class="cls-2" d="M2308.99,3418.22v10.78h-5.46v-9.94c0-3.04-1.37-4.45-3.57-4.45-2.45,0-4.17,1.58-4.17,4.94v9.45h-5.46v-9.94c0-3.04-1.29-4.45-3.57-4.45-2.42,0-4.13,1.58-4.13,4.94v9.45h-5.46v-18.83h5.21v2.17c1.4-1.61,3.5-2.45,5.92-2.45,2.62,0,4.87,1.02,6.2,3.08,1.51-1.93,3.96-3.08,6.79-3.08,4.48,0,7.7,2.59,7.7,8.33Z"/>
      <path class="cls-2" d="M2332.22,3410.17l-8.51,19.99c-1.82,4.55-4.41,5.92-7.81,5.92-1.92,0-4.03-.63-5.25-1.71l2-3.89c.84.74,2,1.19,3.08,1.19,1.5,0,2.35-.67,3.08-2.34l.07-.18-8.16-18.97h5.64l5.29,12.78,5.32-12.78h5.25Z"/>
      <path class="cls-2" d="M2332.01,3425.85c0-2.03,1.51-3.36,3.4-3.36s3.39,1.33,3.39,3.36-1.5,3.43-3.39,3.43-3.4-1.44-3.4-3.43Z"/>
      <path class="cls-2" d="M2340.87,3419.58c0-5.67,4.38-9.7,10.5-9.7,3.96,0,7.07,1.72,8.44,4.8l-4.24,2.28c-1.01-1.79-2.52-2.59-4.24-2.59-2.77,0-4.94,1.93-4.94,5.22s2.17,5.22,4.94,5.22c1.71,0,3.22-.77,4.24-2.59l4.24,2.31c-1.37,3.01-4.48,4.76-8.44,4.76-6.13,0-10.5-4.03-10.5-9.7Z"/>
      <path class="cls-2" d="M2378.32,3424.8v4.2h-16.8v-3.29l9.59-11.34h-9.35v-4.2h16.24v3.29l-9.59,11.34h9.91Z"/>
    </g>
  </g>
</svg>