<?xml version="1.0" encoding="UTF-8"?>
<svg id="Vrstva_1" data-name="Vrstva 1" xmlns="http://www.w3.org/2000/svg" xmlns:xlink="http://www.w3.org/1999/xlink" viewBox="0 0 2603.49 355">
  <defs>
    <style>
      .cls-1 {
        fill: none;
      }

      .cls-2 {
        fill: #606060;
      }

      .cls-3 {
        fill: #dedede;
      }

      .cls-4 {
        clip-path: url(#clippath-1);
      }

      .cls-5 {
        opacity: .5;
      }

      .cls-6 {
        clip-path: url(#clippath);
      }
    </style>
    <clipPath id="clippath">
      <rect class="cls-1" width="2480" height="261"/>
    </clipPath>
    <clipPath id="clippath-1">
      <rect class="cls-1" x="2168.82" y="-119.86" width="208.55" height="634.21" transform="translate(1684.12 2401.55) rotate(-80)"/>
    </clipPath>
  </defs>
  <g id="Group_45" data-name="Group 45">
    <g class="cls-6">
      <g id="Group_44" data-name="Group 44">
        <path id="Path_110" data-name="Path 110" class="cls-3" d="M1.46,0v259.67s1236.49-99.78,1735.65-98.08c456.37,1.55,742.68,78.94,742.68,78.94V0H1.46Z"/>
      </g>
    </g>
  </g>
  <g id="Group_70" data-name="Group 70" class="cls-5">
    <g class="cls-4">
      <g id="Group_59" data-name="Group 59">
        <path id="Path_123" data-name="Path 123" class="cls-2" d="M2169.54,130.88c-4.77,7.1-8.34,14.92-10.59,23.17-3.51,13.31-5.9,37.4-4.22,47.74,0,0-9.21-54.96-9.4-54.97s11.66-11.04,24.21-15.94"/>
        <path id="Path_124" data-name="Path 124" class="cls-2" d="M2350.76,232.86c12.05,10.45,24.71,21.06,30.62,24.95,13.36,8.78,42.87,26.36,76.2,32.8,33.25,6.42,80.61-1.41,128.24-40.78-3.84,3.01-46.05,35.48-76.2,38.18,0,0-28.26,5.74-51.59-.55,0,0-47.5-15.14-73.59-32.92-10.96-7.55-21.43-15.8-31.32-24.71-.06.1-.14.21-.22.31-.69.93-1.41,1.84-2.14,2.72"/>
        <path id="Path_125" data-name="Path 125" class="cls-2" d="M1966.03,115.92c.82,1.79,2.81,3.65,21.49-8.98,0,0,59.62,33.98,81.04,79.13,12.9,27.32,22.45,56.11,28.44,85.72,0,0,1.13,1.23,1.52-.59s-1.93-49.38,15.8-84.91c0,0,26.15-48.06,66.76-59.5,5.02-1.38,10.36-.88,15.04,1.39,20.33,9.72,83.4,42.47,157.24,107.13.53-1.27,1.95-2.48,2.92-3.73-14.2-11.68-114.85-102.81-174.07-141.67-48.82-32.03-102.52-31.74-130.77-27.63-28.25,4.11-61.39,21.25-73.86,35.27-12.47,14.02-12.37,16.59-11.55,18.38"/>
      </g>
    </g>
  </g>
</svg>